<?xml version="1.0" standalone="no"?>
<!DOCTYPE svg PUBLIC "-//W3C//DTD SVG 20010904//EN"
 "http://www.w3.org/TR/2001/REC-SVG-20010904/DTD/svg10.dtd">
<svg version="1.0" xmlns="http://www.w3.org/2000/svg"
 width="194.000000pt" height="194.000000pt" viewBox="0 0 194.000000 194.000000"
 preserveAspectRatio="xMidYMid meet">
<metadata>
Created by potrace 1.16, written by Peter Selinger 2001-2019
</metadata>
<g transform="translate(0.000000,194.000000) scale(0.100000,-0.100000)"
fill="#000000" stroke="none">
<path d="M1664 1755 c-96 -30 -205 -109 -341 -247 -219 -222 -359 -446 -406
-653 -19 -84 -20 -102 -9 -153 15 -74 56 -131 112 -159 58 -30 101 -29 181 6
l65 28 -47 -91 c-59 -113 -113 -244 -129 -314 -19 -83 11 -132 81 -132 29 0
66 45 85 103 24 74 89 227 141 332 51 102 180 322 194 331 17 10 10 83 -11
104 -34 34 -63 25 -147 -47 -193 -167 -299 -217 -346 -165 -85 94 142 512 419
772 140 132 274 199 274 138 -1 -65 -106 -217 -223 -322 -83 -75 -105 -112
-88 -145 14 -25 42 -41 71 -41 39 0 97 38 170 114 139 142 195 258 188 389 -3
60 -8 79 -28 104 -48 60 -118 76 -206 48z"/>
<path d="M955 1754 c-113 -12 -312 -67 -372 -104 -28 -17 -33 -25 -33 -58 0
-39 16 -62 52 -75 9 -3 70 10 134 29 65 18 123 34 130 34 17 0 -106 -277 -278
-621 -88 -177 -103 -202 -157 -251 -33 -31 -81 -66 -107 -78 -43 -21 -50 -22
-73 -9 -72 40 -64 184 19 354 27 55 71 127 99 160 55 64 63 93 31 125 -35 35
-59 25 -140 -57 -124 -128 -220 -338 -221 -487 -1 -85 7 -119 37 -167 39 -62
79 -84 154 -84 184 0 379 198 574 584 72 142 220 477 232 527 6 23 9 24 93 24
94 0 125 12 141 56 12 29 -2 64 -33 84 -22 14 -193 22 -282 14z"/>
</g>
</svg>
